<svg width="24" height="24" viewBox="0 0 24 24" fill="none" xmlns="http://www.w3.org/2000/svg">
<path d="M22.25 1.7575L21.13 0.7775C20.11 -0.2425 18.38 -0.2925 17.28 0.8275L15.41 3.2775C14.36 4.3275 14.36 6.0375 15.41 7.0775L16.9 8.6075C15.28 12.4075 12.29 15.4075 8.61002 16.9075L7.08002 15.4175C6.57002 14.9075 5.90002 14.6275 5.18002 14.6275C4.46002 14.6275 3.79002 14.9075 3.33002 15.3775L0.790018 17.3375C-0.259982 18.3875 -0.259982 20.0975 0.770018 21.1175L1.79002 22.2875C2.89002 23.3875 4.37002 23.9975 5.98002 23.9975C13.73 23.9975 24 13.7175 24 5.9775C24 4.3775 23.39 2.8875 22.27 1.7675L22.25 1.7575ZM5.96002 22.9875C4.62002 22.9875 3.39002 22.4875 2.50002 21.5975L1.48002 20.4175C0.820018 19.7575 0.820018 18.6875 1.43002 18.0675L3.97002 16.1075C4.29002 15.7875 4.71002 15.6075 5.17002 15.6075C5.63002 15.6075 6.05002 15.7875 6.37002 16.1075L8.14002 17.8375C8.28002 17.9775 8.48002 18.0175 8.67002 17.9475C12.84 16.3575 16.23 12.9675 17.96 8.6675C18.03 8.4875 17.99 8.2775 17.85 8.1275L16.12 6.3575C15.46 5.6975 15.46 4.6275 16.16 3.9175L18.03 1.4675C18.69 0.8075 19.76 0.8075 20.45 1.4875L21.57 2.4675C22.48 3.3775 22.98 4.6075 22.98 5.9475C22.98 13.1075 13.12 22.9675 5.96002 22.9675V22.9875Z" fill="#FF6F00"/>
</svg>
