<svg width="18" height="18" viewBox="0 0 18 18" fill="none" xmlns="http://www.w3.org/2000/svg">
<path d="M9.4759 4.02161C10.4758 4.18919 11.3841 4.66146 12.1092 5.3851C12.8343 6.10873 13.3038 7.01518 13.4755 8.01304M9.62857 0.75C11.407 1.05088 13.029 1.89259 14.3189 3.17609C15.6089 4.4634 16.4485 6.08206 16.75 7.85688M15.3608 14.9181C15.3608 14.9181 14.3952 15.8664 14.1586 16.1444C13.7732 16.5558 13.319 16.75 12.7237 16.75C12.6664 16.75 12.6053 16.75 12.5481 16.7462C11.4146 16.6738 10.3613 16.232 9.57129 15.855C7.4112 14.8114 5.51445 13.3299 3.93827 11.4522C2.63687 9.88687 1.76673 8.4396 1.19045 6.88568C0.835522 5.93733 0.705763 5.19846 0.76301 4.50148C0.801174 4.05588 0.972912 3.68644 1.28967 3.37033L2.59107 2.07159C2.77808 1.89639 2.97653 1.80118 3.17117 1.80118C3.4116 1.80118 3.60624 1.9459 3.72836 2.06778C3.73218 2.07159 3.736 2.0754 3.73981 2.07921C3.97261 2.2963 4.19397 2.521 4.42677 2.76095C4.54508 2.88282 4.6672 3.0047 4.78933 3.13038L5.83121 4.17014C6.23575 4.57385 6.23575 4.94709 5.83121 5.35081C5.72053 5.46126 5.61367 5.57171 5.503 5.67835C5.18242 6.00589 5.43425 5.75457 5.10222 6.05164C5.09459 6.05926 5.08696 6.06307 5.08314 6.07068C4.75493 6.39823 4.81599 6.71815 4.88469 6.93524C4.8885 6.94667 4.89232 6.95809 4.89614 6.96952C5.1671 7.6246 5.54874 8.24159 6.12884 8.97666L6.13265 8.98047C7.18598 10.2754 8.29656 11.2847 9.52163 12.0578C9.6781 12.1569 9.83839 12.2368 9.99105 12.313C10.1284 12.3816 10.2582 12.4463 10.3689 12.5149C10.3841 12.5225 10.3994 12.5339 10.4147 12.5415C10.5444 12.6063 10.6666 12.6367 10.7925 12.6367C11.1093 12.6367 11.3077 12.4387 11.3726 12.3739L12.1207 11.6274C12.2504 11.4979 12.4565 11.3418 12.6969 11.3418C12.9336 11.3418 13.1282 11.4903 13.2465 11.6198C13.2503 11.6236 13.2503 11.6236 13.2541 11.6274L15.357 13.726C15.7501 14.1144 15.3608 14.9181 15.3608 14.9181Z" stroke="#585E69" stroke-width="1.5" stroke-linecap="round" stroke-linejoin="round"/>
</svg>
