<svg width="26" height="26" viewBox="0 0 26 26" fill="none" xmlns="http://www.w3.org/2000/svg">
<path d="M0 13C0 15.5712 0.762437 18.0846 2.1909 20.2224C3.61935 22.3603 5.64968 24.0265 8.02512 25.0104C10.4006 25.9944 13.0144 26.2518 15.5362 25.7502C18.0579 25.2486 20.3743 24.0105 22.1924 22.1924C24.0105 20.3743 25.2486 18.0579 25.7502 15.5362C26.2518 13.0144 25.9944 10.4006 25.0104 8.02512C24.0265 5.64968 22.3603 3.61935 20.2224 2.1909C18.0846 0.762437 15.5712 0 13 0C9.55333 0.00372784 6.2489 1.37456 3.81173 3.81173C1.37456 6.2489 0.00372784 9.55333 0 13ZM16.6985 11.4682C17.1047 11.8745 17.3329 12.4255 17.3329 13C17.3329 13.5745 17.1047 14.1255 16.6985 14.5318L11.6361 19.5943L10.1043 18.0624L15.1667 13L10.0631 7.89533L11.5917 6.3635L16.6985 11.4682Z" fill="#FF9F54"/>
</svg>
