<svg width="32" height="32" viewBox="0 0 32 32" fill="none" xmlns="http://www.w3.org/2000/svg">
<g clip-path="url(#clip0_1_1616)">
<path d="M31.0281 12.5587C28.9601 9.19071 24.2561 3.54004 16.0001 3.54004C7.74407 3.54004 3.04007 9.19071 0.972068 12.5587C0.332772 13.5927 -0.00585937 14.7844 -0.00585938 16C-0.00585938 17.2157 0.332772 18.4074 0.972068 19.4414C3.04007 22.8094 7.74407 28.46 16.0001 28.46C24.2561 28.46 28.9601 22.8094 31.0281 19.4414C31.6674 18.4074 32.006 17.2157 32.006 16C32.006 14.7844 31.6674 13.5927 31.0281 12.5587ZM28.7547 18.0454C26.9787 20.9334 22.9587 25.7934 16.0001 25.7934C9.0414 25.7934 5.0214 20.9334 3.2454 18.0454C2.86558 17.4308 2.6644 16.7225 2.6644 16C2.6644 15.2775 2.86558 14.5693 3.2454 13.9547C5.0214 11.0667 9.0414 6.20671 16.0001 6.20671C22.9587 6.20671 26.9787 11.0614 28.7547 13.9547C29.1346 14.5693 29.3357 15.2775 29.3357 16C29.3357 16.7225 29.1346 17.4308 28.7547 18.0454Z" fill="#FF9F54"/>
<path d="M15.9999 9.3335C14.6814 9.3335 13.3924 9.72449 12.2961 10.457C11.1998 11.1896 10.3453 12.2308 9.84072 13.4489C9.33614 14.6671 9.20412 16.0076 9.46135 17.3008C9.71859 18.594 10.3535 19.7819 11.2859 20.7142C12.2182 21.6466 13.4061 22.2815 14.6993 22.5387C15.9925 22.796 17.333 22.6639 18.5511 22.1594C19.7693 21.6548 20.8105 20.8003 21.5431 19.704C22.2756 18.6076 22.6666 17.3187 22.6666 16.0002C22.6645 14.2327 21.9614 12.5382 20.7116 11.2885C19.4618 10.0387 17.7674 9.33561 15.9999 9.3335ZM15.9999 20.0002C15.2088 20.0002 14.4354 19.7656 13.7776 19.326C13.1198 18.8865 12.6072 18.2618 12.3044 17.5309C12.0017 16.8 11.9224 15.9957 12.0768 15.2198C12.2311 14.4439 12.6121 13.7311 13.1715 13.1717C13.7309 12.6123 14.4436 12.2314 15.2196 12.077C15.9955 11.9227 16.7998 12.0019 17.5307 12.3046C18.2616 12.6074 18.8863 13.1201 19.3258 13.7779C19.7653 14.4357 19.9999 15.209 19.9999 16.0002C19.9999 17.061 19.5785 18.0784 18.8284 18.8286C18.0782 19.5787 17.0608 20.0002 15.9999 20.0002Z" fill="#FF9F54"/>
</g>
<defs>
<clipPath id="clip0_1_1616">
<rect width="32" height="32" fill="white"/>
</clipPath>
</defs>
</svg>
