<svg width="20" height="16" viewBox="0 0 20 16" fill="none" xmlns="http://www.w3.org/2000/svg">
<path d="M17.2894 14.5L3.53943 0.75M7.93943 6.19644C7.59713 6.57382 7.38943 7.06953 7.38943 7.61245C7.38943 8.79475 8.3744 9.75319 9.58943 9.75319C10.1496 9.75319 10.661 9.54944 11.0494 9.21394M17.325 9.75319C18.0824 8.61942 18.3894 7.69479 18.3894 7.69479C18.3894 7.69479 16.3869 1.3 9.58943 1.3C9.20781 1.3 8.84131 1.32016 8.48943 1.3582M14.5394 12.5287C13.2768 13.3341 11.6513 13.9037 9.58943 13.87C2.87661 13.7602 0.789429 7.69479 0.789429 7.69479C0.789429 7.69479 1.75913 4.59824 4.63943 2.71471" stroke="#B5B5B5" stroke-width="1.5" stroke-linecap="round"/>
</svg>
