<svg width="18" height="18" viewBox="0 0 18 18" fill="none" xmlns="http://www.w3.org/2000/svg">
<path d="M16.25 9.5C16.6642 9.5 17 9.16421 17 8.75C17 8.33579 16.6642 8 16.25 8V9.5ZM16.75 8.75H16C16 12.7541 12.7541 16 8.75 16V16.75V17.5C13.5825 17.5 17.5 13.5825 17.5 8.75H16.75ZM8.75 16.75V16C4.74593 16 1.5 12.7541 1.5 8.75H0.75H0C0 13.5825 3.91751 17.5 8.75 17.5V16.75ZM0.75 8.75H1.5C1.5 4.74593 4.74593 1.5 8.75 1.5V0.75V0C3.91751 0 0 3.91751 0 8.75H0.75ZM8.75 0.75V1.5C12.7541 1.5 16 4.74593 16 8.75H16.75H17.5C17.5 3.91751 13.5825 0 8.75 0V0.75ZM8.75 16.75V16C8.5149 16 8.2318 15.8942 7.90894 15.5821C7.58246 15.2665 7.25419 14.7735 6.96224 14.1062C6.37932 12.7738 6 10.8807 6 8.75H5.25H4.5C4.5 11.0376 4.90418 13.1444 5.58801 14.7075C5.92944 15.4879 6.35535 16.1665 6.86634 16.6605C7.38094 17.158 8.0186 17.5 8.75 17.5V16.75ZM5.25 8.75H6C6 6.61928 6.37932 4.72615 6.96224 3.39376C7.25419 2.72645 7.58246 2.23352 7.90894 1.91789C8.2318 1.60575 8.5149 1.5 8.75 1.5V0.75V0C8.0186 0 7.38094 0.341964 6.86634 0.839468C6.35535 1.33348 5.92944 2.01212 5.58801 2.79253C4.90418 4.35557 4.5 6.46244 4.5 8.75H5.25ZM8.75 16.75V17.5C9.4814 17.5 10.1191 17.158 10.6337 16.6605C11.1446 16.1665 11.5706 15.4879 11.912 14.7075C12.5958 13.1444 13 11.0376 13 8.75H12.25H11.5C11.5 10.8807 11.1207 12.7738 10.5378 14.1062C10.2458 14.7735 9.91754 15.2665 9.59106 15.5821C9.26819 15.8942 8.9851 16 8.75 16V16.75ZM12.25 8.75H13C13 6.46244 12.5958 4.35557 11.912 2.79253C11.5706 2.01212 11.1446 1.33348 10.6337 0.839468C10.1191 0.341964 9.4814 0 8.75 0V0.75V1.5C8.9851 1.5 9.26819 1.60575 9.59106 1.91789C9.91754 2.23352 10.2458 2.72645 10.5378 3.39376C11.1207 4.72615 11.5 6.61928 11.5 8.75H12.25ZM0.75 8.75L0.75 9.5L16.25 9.5V8.75V8L0.75 8L0.75 8.75Z" fill="#FF6F00"/>
</svg>
